<?xml version="1.0" encoding="utf-8"?>
<!-- Svg Vector Icons : http://www.onlinewebfonts.com/icon -->
<!DOCTYPE svg PUBLIC "-//W3C//DTD SVG 1.1//EN" "http://www.w3.org/Graphics/SVG/1.1/DTD/svg11.dtd">
<svg version="1.1" xmlns="http://www.w3.org/2000/svg" xmlns:xlink="http://www.w3.org/1999/xlink" x="0px" y="0px" viewBox="0 0 256 256" enable-background="new 0 0 256 256" xml:space="preserve">
<metadata> Svg Vector Icons : http://www.onlinewebfonts.com/icon </metadata>
<g><g><g><path fill="#000000" d="M41.1,10.8c-3.3,1.1-5.2,2.3-7.6,4.8c-2.5,2.6-3.7,4.7-4.6,8c-0.6,2.4-0.7,13.4-0.7,94v91.3H128h99.7v-91.3c0-99.6,0.1-94-2.6-98.7c-1.7-2.9-5.8-6.4-8.9-7.7l-2.6-1.1L128.7,10C47.7,9.9,43.6,10,41.1,10.8z M167.9,28.3c7,3.2,7.1,12.7,0.1,16.2c-1.7,0.8-3.3,0.9-40,0.9c-25.9,0-38.7-0.1-39.6-0.5c-1.8-0.6-4.2-3.1-5-4.9c-1.4-3.2-0.4-7.7,2.2-10.2c2.6-2.5,1.2-2.4,42.4-2.4C164.1,27.4,166.2,27.5,167.9,28.3z M122.9,104.8v40.9l-35.9-0.1l-35.9-0.1l-0.1-30.9c0-17,0.1-32.4,0.3-34.2c0.9-7.4,5.8-13.5,12.6-15.6c1.5-0.5,8.2-0.6,30.5-0.6l28.5,0L122.9,104.8L122.9,104.8z M194.1,65.4c3.4,1.6,7.2,5.4,8.9,8.9l1.3,2.8l0.1,34.3l0.1,34.3h-35.8h-35.8v-40.9V63.9l29.2,0.1l29.2,0.1L194.1,65.4z M70.1,164.9c8.5,3.7,10.5,15,4,21.6c-6.3,6.3-17.3,4.6-21.3-3.4c-1.6-3.1-1.7-9.1-0.1-12c1.4-2.6,5.4-6,7.9-6.9C63.3,163.4,67.2,163.7,70.1,164.9z M195.3,164.3c3.6,1.1,6.3,3.4,8,6.9c1.3,2.8,1.4,3.2,1.2,6.6c-0.2,3.9-0.9,5.6-3.2,8.2c-2.4,2.8-5.1,4-9,4.3c-4.2,0.3-6.9-0.6-9.8-3.3c-7.7-7.1-5.2-19.1,4.7-22.5C190.2,163.4,192.2,163.4,195.3,164.3z"/><path fill="#000000" d="M46.3,223c0,10.7,3.2,17.2,10.2,20.6c6.9,3.4,14.7,2.3,20.3-2.7c4.3-3.9,6-8.5,6-16.7V219H64.5H46.3L46.3,223L46.3,223z"/><path fill="#000000" d="M173.3,225.6c0.2,8.6,1.1,10.8,5.4,15.2c4.1,4,6.9,5.2,12.8,5.3c3.9,0,4.4-0.1,7.7-1.8c7.6-3.7,10.5-9.5,10.5-21V219h-18.3h-18.3L173.3,225.6z"/></g></g></g>
</svg>