<?xml version="1.0" encoding="utf-8"?>
<!-- Svg Vector Icons : http://www.onlinewebfonts.com/icon -->
<!DOCTYPE svg PUBLIC "-//W3C//DTD SVG 1.1//EN" "http://www.w3.org/Graphics/SVG/1.1/DTD/svg11.dtd">
<svg version="1.1" xmlns="http://www.w3.org/2000/svg" xmlns:xlink="http://www.w3.org/1999/xlink" x="0px" y="0px" viewBox="0 0 256 256" enable-background="new 0 0 256 256" xml:space="preserve">
<metadata> Svg Vector Icons : http://www.onlinewebfonts.com/icon </metadata>
<g><g><g><path fill="#000000" d="M113.5,22.2L96.9,34.4l-25.2,0H46.4v18.3v18.3l-18,13c-9.9,7.1-18,13.2-18,13.4c0,0.6,114.8,87.2,115.4,87.1c0.3-0.1,27.5-19.7,60.3-43.6L246,97.5L228.3,84l-17.7-13.4V52.5V34.4h-23.9h-23.9l-16.2-12.2c-8.9-6.7-16.2-12.2-16.3-12.2C130.1,10,122.6,15.5,113.5,22.2z M203,80.6l-0.1,38.4l-38.6,28L125.7,175l-35.9-27.1L54,120.8l-0.1-39.3l-0.1-39.3h74.7h74.7L203,80.6z"/><path fill="#000000" d="M123.2,52.2C108,55,95.9,62.8,87.9,75c-3.1,4.7-5.2,9.5-6.8,15.6c-1.1,4-1.2,5.3-1.2,12.5c0,9.4,0.6,12.6,4.1,19.6c5.3,10.9,15.2,18.9,27.8,22.2c4.2,1.2,5.2,1.2,14,1.2c11.1,0,14.8-0.6,24.3-4.1c0.5-0.2-0.1-2.7-1.9-8.4c-0.1-0.3-1.1-0.2-3.1,0.6c-6.3,2.3-15.7,3.4-22.2,2.6c-6-0.7-9.1-1.6-14-4c-7.8-3.8-13.4-10.8-15.9-19.9c-1.4-5.3-1.4-17.2,0-22.5c4-14.4,14.1-24.6,28.4-28.5c5.2-1.4,15.9-1.4,21,0c10.5,2.9,17.8,9.5,21,19.1c1.1,3.4,1.2,4.5,1.2,10.2c0,8.8-1.3,13.4-5.1,18.1c-2.8,3.4-7.6,4.8-9.9,3c-1.8-1.4-1.7-4.5,0.6-19.9c1.2-7.7,2.1-14.3,2.1-14.6c0-0.8-4.6-2.4-9.4-3.2c-5.8-1-14.1-0.7-18.5,0.7c-5.5,1.8-9.4,4-13.2,7.8c-5.7,5.7-8.6,12.2-9,20.3c-0.5,8.9,2.6,15.4,8.9,18.4c3,1.5,9,1.8,12.7,0.7c3.5-1,7.8-3.9,10-6.7c1-1.2,1.9-2.3,2-2.3c0.2,0,0.6,0.9,0.9,2c0.7,2.6,2.8,5.1,5.2,6.4c2.7,1.4,9.5,1.7,13.7,0.6c10.1-2.6,17.5-11,19.9-22.7c0.7-3.7,0.9-5.6,0.7-10.5c-0.3-6.6-1-9.9-3.4-14.9c-5-10.8-14.5-18.3-27.4-21.8C140.4,51.5,128.6,51.1,123.2,52.2z M135.7,86.7c0.1,0.1-1.7,12.3-2.1,14c-0.6,2.6-2,5.2-3.8,7.1c-3.8,4.1-8.3,3.9-10.6-0.5c-0.8-1.7-0.6-7.5,0.4-10.6c1.8-5.3,6-9.4,10.6-10.3C132,86.2,135.2,86.3,135.7,86.7z"/><path fill="#000000" d="M10,177.7c0,37.6,0.1,68.3,0.2,68.3c0.4,0,87.1-67.8,87.2-68.1c0-0.2-18.1-14.4-40.2-31.7c-22.2-17.2-41.9-32.5-43.8-34l-3.4-2.7V177.7z"/><path fill="#000000" d="M200.7,143.6c-24.8,18.7-45,34.1-44.9,34.3c0,0.2,20.3,15.5,45,34.2l44.9,33.8l0.1-34c0-18.8,0-49.4,0-68.1l-0.1-34L200.7,143.6z"/><path fill="#000000" d="M65.3,215l-39.5,30.7l51.3,0.1c28.2,0,74.4,0,102.7,0l51.3-0.1l-41.5-30.7c-22.9-16.9-41.8-30.7-42.1-30.8c-0.3-0.1-5.3,3-11,6.8c-6.4,4.2-10.6,6.8-11,6.6c-0.3-0.2-4.9-3.3-10.2-6.9c-5.3-3.6-9.9-6.6-10.1-6.6C105,184.3,87,198.1,65.3,215z"/></g></g></g>
</svg>