<?xml version="1.0" encoding="utf-8"?>
<!-- Svg Vector Icons : http://www.onlinewebfonts.com/icon -->
<!DOCTYPE svg PUBLIC "-//W3C//DTD SVG 1.1//EN" "http://www.w3.org/Graphics/SVG/1.1/DTD/svg11.dtd">
<svg version="1.1" xmlns="http://www.w3.org/2000/svg" xmlns:xlink="http://www.w3.org/1999/xlink" x="0px" y="0px" viewBox="0 0 256 256" enable-background="new 0 0 256 256" xml:space="preserve">
<metadata> Svg Vector Icons : http://www.onlinewebfonts.com/icon </metadata>
<g><g><path fill="#000000" d="M168,102.2l-0.1-0.9v-1l-0.1-0.9l-0.1-0.9v-0.9l-0.1-0.9v-0.8V95l-0.1-1.7v-1.6v-1.6v-1.6l0.7,0l0.8,0.2l0.7,0.1l0.7,0.1l0.8,0.2l0.8,0.2l0.7,0.2l0.8,0.2l0.7,0.2l0.7,0.3l0.8,0.3l0.3,0.1l0.4,0.2l0.4,0.1l0.3,0.2l0.4,0.2l0.4,0.1l0.2,0.2l0.4,0.2l0.4,0.2l0.3,0.1l0.3,0.2l0.4,0.1l0.2,0.2l0.4,0.2l0.2,0.3l0.2,0.2l0.4,0.2l0.2,0.2l0.3,0.3l0.2,0.1l0.2,0.3l0.3,0.3l0.2,0.3l0.3,0.2l0.2,0.3l0.2,0.2l0.2,0.4l0.1,0.3l0.2,0.3L184,97l0.1,0.4l0.2,0.2l0.1,0.4l0.1,0.4l0.1,0.3l0.1,0.4l0.1,0.4l0.1,0.3v0.4l0.1,0.5v0.3v0.4l3.3,0.4l2.7,0.2l2.6,0.3l2.1,0.2l2.2,0.2l2.3,0.2l5.6,0.4h1.7h1.7h1.6h1.5h1.3h1.3l1.3,0.1h1.2h1.1l1.2,0.1l2.5,0.1l2.6,0.1l3,0.2l2.6-0.3l2.1-0.2l1-0.1h1l0.9-0.1l1-0.1h0.9l1,0h1.1l1.1-0.2l2.6-0.1h3l-0.3-2.4l-0.2-2.1l-0.3-2l-0.2-0.9l-0.1-0.8l-0.1-0.9l-0.1-0.8l-0.1-0.7l-0.2-0.8l-0.1-0.8l-0.2-0.7l-0.2-0.7l-0.1-0.7l-0.2-0.7l-0.1-0.6l-0.2-0.7l-0.2-0.8l-0.2-0.7l-0.2-0.7l-0.3-0.7l-0.3-0.7l-0.3-0.8l-0.4-0.8l-0.4-0.9l-0.4-0.8l-0.3-0.9l-0.4-0.9l-0.9-2.1l-0.7-0.7l-0.7-0.9l-0.8-0.8l-0.7-0.7l-0.7-0.7l-0.7-0.6l-0.7-0.6l-0.7-0.7l-0.6-0.6l-0.6-0.5l-0.6-0.4l-0.7-0.5l-0.6-0.5l-0.7-0.5l-0.6-0.4l-0.6-0.3l-0.6-0.4l-0.6-0.4l-0.7-0.3l-0.5-0.3l-0.7-0.3l-0.7-0.3l-0.6-0.2l-0.7-0.2l-0.7-0.3l-0.7-0.3l-0.7-0.3l-0.8-0.3l-0.7-0.2l-0.9-0.3l-1.8-0.6l-2.1-0.5l-1.9-0.6l-1.9-0.6l-1.8-0.4l-1.6-0.4l-1.5-0.3l-1.5-0.4l-1.5-0.4l-1.3-0.2l-1.5-0.4l-1.4-0.2l-1.6-0.4l-1.6-0.3l-1.7-0.2l-1.8-0.3l-2-0.4l-3.1-0.5l-2.6-0.4l-2.7-0.4l-2.7-0.2l-2.7-0.4l-2.7-0.4l-2.7-0.3l-2.7-0.2l-2.8-0.3l-2.8-0.3l-2.8-0.2l-2.8-0.2l-2.8-0.1l-2.7-0.3l-2.9-0.2l-2.7-0.1l-2.9-0.2l-2.8-0.1l-2.8-0.1l-2.8-0.1l-2.8-0.1h-2.7h-2.8h-1.3h-1.5h-1.4H121h-1.4h-1.4l-1.3,0.1h-1.3l-1.4,0.1h-1.4l-1.4,0.1l-1.4,0.1h-1.2l-1.4,0.1l-1.4,0.1l-1.3,0.1l-1.3,0.1l-1.4,0.1l-1.4,0.3l-1.3,0.1l-3.6,0.5l-1.4,0.1l-1.6,0.2l-1.4,0l-1.5,0.1L88.3,52l-1.4,0.1l-1.4,0.1l-1.5,0.1l-1.3,0.2l-1.4,0.1L79.8,53l-1.3,0.1l-1.3,0.2l-1.4,0.1l-2.6,0.4l-2.6,0.4l-2.5,0.4L65.7,55l-2.4,0.5l-4.8,0.8L53.9,57l-1.3,0.3l-1.3,0.1l-1.2,0.3L48.7,58l-1.3,0.3l-1.3,0.3L45,58.9l-1.3,0.2l-1.2,0.4l-1.2,0.4l-0.7,0.2L40,60.2l-0.5,0.2l-0.7,0.2l-0.6,0.2l-0.6,0.1l-0.6,0.3l-0.6,0.2l-0.7,0.2l-0.5,0.2l-0.6,0.2L34,62.3l-0.6,0.3l-0.5,0.3l-0.7,0.3l-0.6,0.3l-0.6,0.3L30.6,64l-0.6,0.3l-0.6,0.3l-0.7,0.3l-0.5,0.4l-0.5,0.3L27.2,66l-0.5,0.3l-0.6,0.2l-0.6,0.3L25,67.3l-0.4,0.4L24,68.1l-0.6,0.5L23,69l-0.6,0.4L22,70l-0.5,0.5L21,70.8l-0.5,0.5L20,71.8l-0.4,0.6l-0.5,0.5l-0.5,0.6l-0.5,0.7l-0.5,0.5l-0.4,0.5l-1,2.1l-0.4,0.9L15.3,79l-0.3,0.9l-0.5,0.8l-0.2,0.7l-0.4,0.8L13.6,83l-0.3,0.7L13,84.5l-0.3,0.7l-0.1,0.7l-0.3,0.7l-0.2,0.7l-0.2,0.7l0,0.7l-0.2,0.7l-0.2,0.7L11.3,91l-0.1,0.8l-0.1,0.7L11,93.3L10.8,94v0.8l-0.1,0.7l-0.1,1.7L10.3,99l-0.1,1.8l-0.2,1.9h1.4h1.3H14l1.3,0.1h1.2l1.2,0.2h1.2l1.1,0l1.1,0.1l1.2,0.1l1,0.1l1.1,0.1l2,0.2l2,0.2h1.1l1.2-0.1h1.2l1.3-0.1l2.8-0.1l2.8-0.2l1.4-0.1h1.4l1.4-0.1h1.5h0.7h0.7h0.7h0.7h0.7h0.6l0.7,0.1h0.7l1.2-0.1l1.3-0.1l1.4,0l1.2-0.2l2.6-0.3l2.6-0.3l2.6-0.3l1.4-0.1l1.3-0.2l1.4-0.1l1.3-0.2l1.4-0.1l1.5-0.1v-0.4l0-0.5V100l0.1-0.5l0.1-0.4v-0.3l0.1-0.4l0-0.4l0.2-0.3l0-0.3l0.1-0.4l0.2-0.2l0-0.4l0.1-0.2l0.3-0.3l0.1-0.3l0.1-0.3l0.2-0.3l0.2-0.3l0.3-0.3l0.2-0.2L74,94l0.3-0.1l0.1-0.3l0.3-0.2l0.1-0.3l0.3-0.2l0.3-0.1l0.3-0.2l0.2-0.2l0.3-0.2l0.2-0.2l0.3-0.1l0.3-0.2l0.3-0.1l0.4-0.2l0.2-0.2l0.4-0.1l0.2-0.2l0.4-0.1l0.3-0.1l0.4-0.1l0.7-0.3L81,90l0.8-0.2l0.8-0.2l0.7-0.2l0.8-0.1l0.8-0.1l0.7-0.2l0.9-0.1l0.8-0.1l0.8-0.2v13.7l-16.4,18.9l-24,61.1l0.1,2.1l0.1,1.9l0.1,3.4l0,1.5v1.3l0.2,1.3l0.1,0.7v0.7l0.1,0.5v0.6l0.1,0.5l0,0.7l0.1,0.6l0.1,0.6l0.1,0.6l0.1,0.6l0,0.6l0.2,0.6l0,0.7l0.2,0.7l0.2,0.5l0.2,0.8l0.3,0.6l0.1,0.7l2,1.1h0.4h0.5h0.3l0.4,0.1h0.3h0.4l0.6,0.1l0.7,0.1l0.4,0.1h0.4l0.4,0.2h0.6h0.6h0.6h138.2l1.4-0.2h1l0.8-0.1l0.7-0.1h0.6l0.7-0.1l0.7-0.1h1.1l0.4-0.7l0.3-0.6l0.2-0.7l0.3-0.7l0.2-0.6l0.2-0.6l0.2-0.5l0.2-0.6l0.2-0.7l0.2-0.6l0.1-0.6l0.2-0.5l0.2-0.7l0.1-0.6l0.1-0.7V196l0-0.6l0.1-0.7l0.1-0.6v-0.7l0-1.5l0.2-1.6l0.1-1.8l0-1.9l0.2-2.1l0.1-1.1l0.1-1.2l-23.9-61.1L168,102.2z M128,177.9c-16.2,0-29.3-13.1-29.3-29.4c0-16.2,13.1-29.3,29.3-29.3c16.1,0,29.3,13.1,29.3,29.3C157.3,164.8,144.1,177.9,128,177.9 M158.6,88.5l-0.7,1.6l-0.7,1.6l-0.7,1.6l-0.4,0.8l-0.4,0.9l-0.2,0.8l-0.4,0.8l-0.4,0.7l-0.3,0.9l-0.3,0.7l-0.3,0.8l-1.8-0.2l-1.7-0.1l-1.7-0.1l-1.6-0.1l-1.7-0.1l-1.6-0.1l-1.6-0.1l-1.7-0.1h-1.7l-1.6-0.1l-1.6-0.1h-1.7h-1.5l-1.7-0.1H129h-1.6h-1.6h-1.6l-1.7,0.1H121h-1.6l-1.6,0.1l-1.6,0.1h-1.6l-1.5,0.1l-1.7,0.1l-1.6,0.1l-1.5,0.1l-1.7,0.1l-1.6,0.1l-1.6,0.1l-1.6,0.2l-1.1-1.7l-0.4-0.8l-0.5-0.9l-0.4-0.8l-0.4-0.7l-0.5-0.8l-0.3-0.8l-0.3-0.8l-0.4-0.8l-0.4-0.8L96.9,90l-0.4-0.8l-0.3-0.7L96,87.7L95.6,87l1-0.2l1.1-0.2l1.1-0.3l1-0.2l1-0.2l1.1-0.2l1-0.3l1-0.2l1-0.2l1-0.2l0.9-0.1l1-0.2l1-0.2h1l1-0.3l1-0.2l1,0l0.9-0.2l0.9-0.2l1-0.1l1-0.1l1-0.1l1-0.1l1-0.1l1.1-0.1h1l0.9,0h1l1-0.1h1h1h1h1h0.9h1.1h1l0.8,0.1h1.1l1,0h1l1,0.1l1,0.1l0.9,0.1l1,0.1l1.1,0.1l0.9,0.1l1,0.1l1,0.2l1,0l0.9,0.2l1.1,0.3h1l1,0.2l1,0.2l1,0.2l1,0.2l1.1,0.2l0.9,0.3l1.1,0.2l1,0.3l1,0.2l1,0.2l0.9,0.3l1,0.3L158.6,88.5z M242.6,109.3h-2.5l-2.1,0.1l-1,0.1h-0.9h-0.9l-0.9,0.1l-0.9,0.1h-0.9l-1,0.1l-1,0.1l-1.1,0.1l-1.1,0.2h-1.3l-1.3,0h-1.2h-1.2L222,110h-1.1l-2.1-0.1l-2.2-0.1l-1.1-0.1h-1.3h-1.3l-1.4-0.1H210h-1.7l-1.7-0.1l-1.6-0.1l-1.5-0.1l-1.4-0.1l-1.2-0.1l-1.2-0.1l-1.1-0.1l-1.1-0.1l-1-0.1l-1.2-0.2l-2.1-0.3l-2.5-0.2l-2.9-0.4l0.3,1.1l0.3,1l0.3,1l0.3,1l0.3,0.9l0,0.4l0.2,0.5l0,0.4l0.2,0.4l0,0.4l0.2,0.3l0.1,0.3l0.2,0.3l0.1,0.3l0.1,0.4l0.2,0.3l0.2,0.2l0.1,0.3l0.1,0.3l0.1,0.3l0.3,0.2l0.1,0.3l0.2,0.1l0.2,0.3l0.2,0.2l0.2,0.2l0.2,0.2l0.2,0.2l0.3,0.1l0.2,0.2l0.2,0.2l0.3,0.2l0.1,0.1l0.3,0.2l0.3,0.2l0.3,0.1l0.3,0.1l0.1,0.1l0.4,0.1l0.3,0.2l0.2,0.1l0.3,0.1l0.2,0l0.6,0.2l0.8,0.2l0.7,0.2l0.8,0.2l0.8,0.2l0.8,0.2l0.9,0.2l0.9,0.2l1.8,0.2l1.6,0.1l1.6,0.1l1.5,0.1l1.4,0l1.3,0.1l1.3,0.1h1.3l1.3,0.1h1.4l1.5,0.1h1.6h1.6h1.9h4.4l1-0.2l1.1-0.1l1-0.1l0.9-0.1l0.9-0.1l0.8-0.2l0.8-0.1l0.4-0.1l0.4-0.1l0.4-0.1l0.4-0.1l0.3,0l0.4-0.1l0.2-0.1l0.4-0.1l0.3-0.2l0.3-0.1l0.3-0.1l0.2-0.1l0.3-0.2l0.3,0l0.3-0.2l0.2-0.2l0.2-0.2l0.3-0.1l0.3-0.2l0.2-0.2l0.1-0.2l0.2-0.3l0.3-0.2l0.2-0.2l0.2-0.3l0.1-0.3l0.1-0.3l0.1-0.3l0.2-0.3l0.2-0.3l0.2-0.3l0.1-0.4l0.1-0.3l0.1-0.4l0.2-0.4l0.1-0.4l0.1-0.3l0.2-0.4l0.1-0.3l0-0.5l0.1-0.4l0.2-0.4l0-0.5l0.1-0.5l0.2-1l0.2-1l0.2-1.1H244L242.6,109.3z M50.3,123.3l1.5-0.3l1.3-0.2l0.8-0.1l0.6-0.2l0.7-0.1l0.7-0.1l0.8-0.2l0.7-0.2l0.7-0.2l0.3-0.1l0.4-0.2l0.2-0.1l0.4,0l0.3-0.2l0.2-0.1l0.4-0.2l0.3-0.1l0.3-0.1l0.4-0.2l0.3-0.2l0.3-0.2l0.3-0.2l0.3-0.2l0.2-0.2l0.3-0.1l0.3-0.3l0.3-0.2l0.3-0.3l0.3-0.3l0.3-0.1l0.2-0.3l0.2-0.3l0.3-0.3l0.2-0.3l0.1-0.3l0.3-0.4l0.2-0.4l0.1-0.3l0.3-0.3l0.2-0.3l0.2-0.5l0.1-0.4l0.2-0.5l0.1-0.4l0.1-0.4l0.2-0.4l0.2-0.6v-0.5l0.2-0.5l0.1-0.6l0.2-0.5v-2.1h-0.7l-0.7,0.1l-1.3,0.1l-1.3,0.2l-1.3,0.2l-1.2,0.2l-1.2,0.1l-2.5,0.4l-1.1,0.2l-1.2,0l-1.2,0.2l-1.2,0.1l-0.6,0.1h-0.5l-0.5,0.1h-0.7l-0.6,0.1H50h-0.5h-0.6H48l-0.7-0.1h-0.7h-0.8H45l-0.7-0.1l-0.8,0.1h-0.7h-1.5h-1.5l-1.5,0.1l-1.4,0.1l-1.5,0.1H34l-2.5,0.1l-1.1,0.1h-1h-0.8l-0.8,0l-0.4,0L27,110l-0.4-0.1l-0.5-0.1l-0.4-0.1l-0.5-0.1l-1-0.1l-0.9-0.1l-1-0.1l-1-0.1h-1.2l-1.1-0.1H18h-1.1h-1.3h-2.5h-2.5l-0.1,0.3v0.5v0.5v0.5v0.4v0.4v0.3v0.4l0.1,0.5l0.1,0.3v0.3l0.1,0.4l0.1,0.3l0.1,0.4l0,0.2l0.1,0.4l0.1,0.4l0.2,0.3l0.1,0.4l0.1,0.2l0.2,0.3l0.1,0.3l0.2,0.3l0.1,0.3l0.2,0.3l0.1,0.3l0.3,0.2l0.1,0.3l0.2,0.3l0.3,0.1l0.2,0.3l0.2,0.2l0.3,0.3l0.2,0.2l0.3,0.2l0.3,0.1l0.3,0.2l0.3,0.2l0.3,0.2l0.3,0.2l0.4,0.2l0.3,0.1l0.2,0.2l0.4,0.2l0.2,0.1l0.4,0.1l0.4,0.1l0.3,0.1l0.4,0.1l0.4,0.1l0.4,0.1l0.4,0l0.3,0.1l0.4,0.1h0.4l0.4,0.1l0.4,0.1h0.3h0.4l0.4,0h0.5h0.4h0.3h0.5l1.9,0.1l1.8,0l1.8,0.1h1.8l1.6,0.1h1.7h1.6h1.6h1.6h1.5h1.5l1.5-0.1h1.4l1.4-0.1l1.3,0L50.3,123.3z"/></g></g>
</svg>